<?xml version="1.0" encoding="UTF-8" standalone="no"?>
<svg
   xmlns:dc="http://purl.org/dc/elements/1.1/"
   xmlns:cc="http://creativecommons.org/ns#"
   xmlns:rdf="http://www.w3.org/1999/02/22-rdf-syntax-ns#"
   xmlns:svg="http://www.w3.org/2000/svg"
   xmlns="http://www.w3.org/2000/svg"
   id="svg8"
   version="1.1"
   viewBox="0 0 85.989582 13.229167"
   height="50"
   width="325">
  <defs
     id="defs2" />
  <metadata
     id="metadata5">
    <rdf:RDF>
      <cc:Work
         rdf:about="">
        <dc:format>image/svg+xml</dc:format>
        <dc:type
           rdf:resource="http://purl.org/dc/dcmitype/StillImage" />
        <dc:title></dc:title>
      </cc:Work>
    </rdf:RDF>
  </metadata>
  <g
     transform="translate(0,-283.77081)"
     id="layer1">
    <g
       style="fill:#f9f9f9;fill-rule:evenodd;stroke:none;stroke-width:1"
       transform="matrix(0.56216685,0,0,0.55183883,-0.14396999,284.23189)"
       id="miu-3">
      <g
         style="fill:#f9f9f9"
         id="Artboard-1-5"
         transform="translate(-791,-371)">
        <g
           style="fill:#f9f9f9"
           id="slice-5"
           transform="translate(215,119)" />
        <path
           style="fill:#f9f9f9"
           d="m 792,373.00246 v 18.99508 c 0,0.55364 0.45097,1.00246 0.99078,1.00246 h 3.01844 C 796.55641,393 797,392.56054 797,391.99754 V 373.00246 C 797,372.44882 796.54903,372 796.00922,372 h -3.01844 C 792.44359,372 792,372.43946 792,373.00246 Z m 4,-4.2e-4 c -0.009,0 -0.007,18.99573 -0.007,18.99573 0,0.008 -3.00231,0.002 -3.00231,0.002 0.009,0 0.007,-18.99573 0.007,-18.99573 0,-0.008 3.00232,-0.002 3.00232,-0.002 z m 2,4.2e-4 v 18.99508 c 0,0.55364 0.45097,1.00246 0.99078,1.00246 h 3.01844 C 802.55641,393 803,392.56054 803,391.99754 V 373.00246 C 803,372.44882 802.54903,372 802.00922,372 h -3.01844 C 798.44359,372 798,372.43946 798,373.00246 Z m 4,-4.2e-4 c -0.009,0 -0.007,18.99573 -0.007,18.99573 0,0.008 -3.00231,0.002 -3.00231,0.002 0.009,0 0.007,-18.99573 0.007,-18.99573 0,-0.008 3.00232,-0.002 3.00232,-0.002 z m 1.62704,0.97109 4.91629,18.34783 c 0.14329,0.53478 0.69506,0.85159 1.21647,0.71188 l 2.9156,-0.78123 c 0.52854,-0.14163 0.84327,-0.68092 0.69756,-1.22474 l -4.91629,-18.34784 c -0.14329,-0.53477 -0.69506,-0.85158 -1.21647,-0.71187 l -2.9156,0.78123 c -0.52854,0.14163 -0.84327,0.68092 -0.69756,1.22474 z m 3.8636,-1.03568 c -0.008,0.002 4.90978,18.35025 4.90978,18.35025 0.002,0.008 -2.89941,0.77932 -2.89941,0.77932 0.008,-0.002 -4.90978,-18.35026 -4.90978,-18.35026 -0.002,-0.008 2.89941,-0.77931 2.89941,-0.77931 z"
           id="editor-books-library-collection-outline-stroke-8" />
      </g>
    </g>
    <g
       id="text837-5"
       style="font-style:normal;font-variant:normal;font-weight:300;font-stretch:normal;font-size:11.32296753px;line-height:1.25;font-family:'Ubuntu Light';-inkscape-font-specification:'Ubuntu Light, Light';font-variant-ligatures:normal;font-variant-caps:normal;font-variant-numeric:normal;font-feature-settings:normal;text-align:start;letter-spacing:0px;word-spacing:0px;writing-mode:lr-tb;text-anchor:start;fill:#f9f9f9;fill-opacity:1;stroke:none;stroke-width:0.28307387"
       aria-label="My Book Shelf">
      <path
         id="path837"
         style="font-style:normal;font-variant:normal;font-weight:300;font-stretch:normal;font-size:11.32296753px;font-family:'Ubuntu Light';-inkscape-font-specification:'Ubuntu Light, Light';font-variant-ligatures:normal;font-variant-caps:normal;font-variant-numeric:normal;font-feature-settings:normal;text-align:start;writing-mode:lr-tb;text-anchor:start;fill:#f9f9f9;stroke-width:0.28307387"
         d="m 18.247956,293.20273 q -0.11323,-0.28308 -0.328366,-0.74732 -0.203813,-0.46424 -0.464242,-1.00774 -0.260428,-0.55483 -0.532179,-1.1323 -0.271751,-0.5888 -0.520857,-1.09833 -0.249105,-0.50953 -0.441595,-0.89451 -0.192491,-0.38498 -0.283075,-0.54351 -0.147198,1.41537 -0.237782,3.07985 -0.07926,1.65315 -0.147198,3.47615 h -0.758639 q 0.101906,-2.14004 0.226459,-4.09891 0.135876,-1.95888 0.328366,-3.7479 h 0.679378 q 0.339689,0.56614 0.72467,1.31346 0.384981,0.73599 0.758639,1.53992 0.384981,0.79261 0.735993,1.5739 0.362335,0.76996 0.634086,1.39272 0.271751,-0.62276 0.622763,-1.39272 0.362335,-0.78129 0.735993,-1.5739 0.384981,-0.80393 0.769962,-1.53992 0.384981,-0.74732 0.72467,-1.31346 h 0.645409 q 0.19249,1.78902 0.317043,3.7479 0.135876,1.95887 0.237782,4.09891 h -0.781284 q -0.06794,-1.823 -0.158522,-3.47615 -0.07926,-1.66448 -0.226459,-3.07985 -0.09058,0.15853 -0.283074,0.54351 -0.192491,0.38498 -0.441596,0.89451 -0.249105,0.50953 -0.520857,1.09833 -0.271751,0.57747 -0.532179,1.1323 -0.260428,0.5435 -0.475565,1.00774 -0.203813,0.46424 -0.317043,0.74732 z" />
      <path
         id="path839"
         style="font-style:normal;font-variant:normal;font-weight:300;font-stretch:normal;font-size:11.32296753px;font-family:'Ubuntu Light';-inkscape-font-specification:'Ubuntu Light, Light';font-variant-ligatures:normal;font-variant-caps:normal;font-variant-numeric:normal;font-feature-settings:normal;text-align:start;writing-mode:lr-tb;text-anchor:start;fill:#f9f9f9;stroke-width:0.28307387"
         d="m 26.074781,294.45957 q -0.373658,-0.6907 -0.72467,-1.43801 -0.339689,-0.74732 -0.645409,-1.50596 -0.294398,-0.76996 -0.543503,-1.5286 -0.249105,-0.76996 -0.430273,-1.50595 h 0.781285 q 0.124553,0.5435 0.317043,1.17759 0.192491,0.62276 0.430273,1.29081 0.249105,0.66806 0.543502,1.37008 0.294398,0.70203 0.634087,1.38141 0.249105,-0.70203 0.441595,-1.32479 0.192491,-0.62276 0.351012,-1.2342 0.169845,-0.62277 0.317043,-1.26818 0.158522,-0.64541 0.328366,-1.39272 h 0.735993 q -0.362335,1.64183 -0.826576,3.19307 -0.464242,1.55125 -1.007744,2.84207 -0.215137,0.50953 -0.441596,0.87187 -0.226459,0.37366 -0.509534,0.61144 -0.271751,0.23778 -0.645409,0.35101 -0.362335,0.11323 -0.860545,0.11323 -0.283075,0 -0.520857,-0.0679 -0.226459,-0.0679 -0.283074,-0.1019 l 0.147199,-0.61144 q 0.04529,0.034 0.249105,0.0906 0.215136,0.0679 0.441596,0.0679 0.317043,0 0.566148,-0.0679 0.260428,-0.0679 0.464242,-0.23778 0.203813,-0.15853 0.362335,-0.41895 0.169844,-0.26043 0.328366,-0.65674 z" />
      <path
         id="path841"
         style="font-style:normal;font-variant:normal;font-weight:300;font-stretch:normal;font-size:11.32296753px;font-family:'Ubuntu Light';-inkscape-font-specification:'Ubuntu Light, Light';font-variant-ligatures:normal;font-variant-caps:normal;font-variant-numeric:normal;font-feature-settings:normal;text-align:start;writing-mode:lr-tb;text-anchor:start;fill:#f9f9f9;stroke-width:0.28307387"
         d="m 34.364608,294.40296 q -0.192491,0 -0.452919,-0.0226 -0.249105,-0.0113 -0.520856,-0.0453 -0.260429,-0.0226 -0.498211,-0.0566 -0.237782,-0.0453 -0.407627,-0.0906 v -7.55242 q 0.203814,-0.0566 0.452919,-0.0906 0.249105,-0.0453 0.509533,-0.0679 0.271752,-0.034 0.520857,-0.0453 0.260428,-0.0113 0.475565,-0.0113 0.634086,0 1.200234,0.1019 0.577471,0.10191 1.007744,0.33969 0.430273,0.23779 0.679378,0.63409 0.260429,0.38498 0.260429,0.96245 0,0.63409 -0.328367,1.08701 -0.317043,0.44159 -0.860545,0.61144 0.339689,0.0793 0.622763,0.22646 0.283074,0.14719 0.498211,0.38498 0.215136,0.22646 0.328366,0.56615 0.124552,0.32836 0.124552,0.7926 0,1.10965 -0.883191,1.69845 -0.883192,0.57747 -2.728835,0.57747 z m -1.109651,-3.82716 v 3.09117 q 0.169844,0.0226 0.509533,0.0566 0.33969,0.0226 0.690702,0.0226 0.520856,0 1.007744,-0.0679 0.49821,-0.0679 0.871868,-0.24911 0.373658,-0.18116 0.600117,-0.49821 0.22646,-0.31704 0.22646,-0.81525 0,-0.45292 -0.158522,-0.74732 -0.158521,-0.30572 -0.452919,-0.47556 -0.294397,-0.18117 -0.724669,-0.24911 -0.41895,-0.0679 -0.939807,-0.0679 z m 0,-0.65674 h 1.494632 q 0.418949,0 0.792607,-0.0566 0.373658,-0.0679 0.64541,-0.22646 0.283074,-0.16984 0.441595,-0.4416 0.158522,-0.28307 0.158522,-0.71334 0,-0.38498 -0.169845,-0.64541 -0.169844,-0.27175 -0.486887,-0.4416 -0.30572,-0.16984 -0.735993,-0.23778 -0.430273,-0.0793 -0.951129,-0.0793 -0.41895,0 -0.713347,0.0226 -0.283075,0.0226 -0.475565,0.0566 z" />
      <path
         id="path843"
         style="font-style:normal;font-variant:normal;font-weight:300;font-stretch:normal;font-size:11.32296753px;font-family:'Ubuntu Light';-inkscape-font-specification:'Ubuntu Light, Light';font-variant-ligatures:normal;font-variant-caps:normal;font-variant-numeric:normal;font-feature-settings:normal;text-align:start;writing-mode:lr-tb;text-anchor:start;fill:#f9f9f9;stroke-width:0.28307387"
         d="m 44.576334,291.4137 q 0,0.6907 -0.203814,1.25685 -0.19249,0.56614 -0.554825,0.96245 -0.351012,0.3963 -0.8379,0.62276 -0.486887,0.21514 -1.075682,0.21514 -0.588794,0 -1.075681,-0.21514 -0.486888,-0.22646 -0.849223,-0.62276 -0.351012,-0.39631 -0.554825,-0.96245 -0.192491,-0.56615 -0.192491,-1.25685 0,-0.6907 0.192491,-1.25685 0.203813,-0.56615 0.554825,-0.96246 0.362335,-0.40762 0.849223,-0.62276 0.486887,-0.22646 1.075681,-0.22646 0.588795,0 1.075682,0.22646 0.486888,0.21514 0.8379,0.62276 0.362335,0.39631 0.554825,0.96246 0.203814,0.56615 0.203814,1.25685 z m -0.781285,0 q 0,-1.09833 -0.509534,-1.74374 -0.509533,-0.65673 -1.381402,-0.65673 -0.871868,0 -1.381402,0.65673 -0.509533,0.64541 -0.509533,1.74374 0,1.09832 0.509533,1.74373 0.509534,0.64541 1.381402,0.64541 0.871869,0 1.381402,-0.64541 0.509534,-0.64541 0.509534,-1.74373 z" />
      <path
         id="path845"
         style="font-style:normal;font-variant:normal;font-weight:300;font-stretch:normal;font-size:11.32296753px;font-family:'Ubuntu Light';-inkscape-font-specification:'Ubuntu Light, Light';font-variant-ligatures:normal;font-variant-caps:normal;font-variant-numeric:normal;font-feature-settings:normal;text-align:start;writing-mode:lr-tb;text-anchor:start;fill:#f9f9f9;stroke-width:0.28307387"
         d="m 51.166654,291.4137 q 0,0.6907 -0.203813,1.25685 -0.19249,0.56614 -0.554825,0.96245 -0.351012,0.3963 -0.8379,0.62276 -0.486888,0.21514 -1.075682,0.21514 -0.588794,0 -1.075682,-0.21514 -0.486887,-0.22646 -0.849222,-0.62276 -0.351012,-0.39631 -0.554826,-0.96245 -0.19249,-0.56615 -0.19249,-1.25685 0,-0.6907 0.19249,-1.25685 0.203814,-0.56615 0.554826,-0.96246 0.362335,-0.40762 0.849222,-0.62276 0.486888,-0.22646 1.075682,-0.22646 0.588794,0 1.075682,0.22646 0.486888,0.21514 0.8379,0.62276 0.362335,0.39631 0.554825,0.96246 0.203813,0.56615 0.203813,1.25685 z m -0.781284,0 q 0,-1.09833 -0.509534,-1.74374 -0.509533,-0.65673 -1.381402,-0.65673 -0.871868,0 -1.381402,0.65673 -0.509534,0.64541 -0.509534,1.74374 0,1.09832 0.509534,1.74373 0.509534,0.64541 1.381402,0.64541 0.871869,0 1.381402,-0.64541 0.509534,-0.64541 0.509534,-1.74373 z" />
      <path
         id="path847"
         style="font-style:normal;font-variant:normal;font-weight:300;font-stretch:normal;font-size:11.32296753px;font-family:'Ubuntu Light';-inkscape-font-specification:'Ubuntu Light, Light';font-variant-ligatures:normal;font-variant-caps:normal;font-variant-numeric:normal;font-feature-settings:normal;text-align:start;writing-mode:lr-tb;text-anchor:start;fill:#f9f9f9;stroke-width:0.28307387"
         d="m 54.326116,291.15327 q 0.351012,0.23778 0.747316,0.61144 0.407626,0.37366 0.792607,0.81525 0.396304,0.43027 0.735993,0.89452 0.351012,0.45292 0.588795,0.86054 h -0.871869 q -0.271751,-0.45292 -0.622763,-0.88319 -0.339689,-0.4416 -0.72467,-0.82658 -0.373658,-0.38498 -0.758639,-0.70202 -0.373658,-0.31704 -0.713347,-0.53218 v 2.94397 h -0.735993 v -8.65075 l 0.735993,-0.13587 v 5.5709 q 0.283074,-0.27175 0.634086,-0.62276 0.351012,-0.35102 0.702024,-0.71335 0.362335,-0.36234 0.679378,-0.70202 0.317043,-0.33969 0.543503,-0.60012 h 0.883191 q -0.260428,0.27175 -0.588794,0.61144 -0.328366,0.33969 -0.690701,0.71334 -0.351012,0.36234 -0.702024,0.71335 -0.351012,0.35101 -0.634086,0.63409 z" />
      <path
         id="path849"
         style="font-style:normal;font-variant:normal;font-weight:300;font-stretch:normal;font-size:11.32296753px;font-family:'Ubuntu Light';-inkscape-font-specification:'Ubuntu Light, Light';font-variant-ligatures:normal;font-variant-caps:normal;font-variant-numeric:normal;font-feature-settings:normal;text-align:start;writing-mode:lr-tb;text-anchor:start;fill:#f9f9f9;stroke-width:0.28307387"
         d="m 62.678574,293.83681 q 0.91716,0 1.426694,-0.32836 0.509533,-0.33969 0.509533,-1.08701 0,-0.43027 -0.169844,-0.71335 -0.158522,-0.29439 -0.430273,-0.48688 -0.271751,-0.20382 -0.622763,-0.33969 -0.351012,-0.1472 -0.735993,-0.30572 -0.486888,-0.19249 -0.871869,-0.39631 -0.384981,-0.20381 -0.656732,-0.45292 -0.271751,-0.26042 -0.41895,-0.58879 -0.135875,-0.32837 -0.135875,-0.76996 0,-1.00775 0.668055,-1.5286 0.668055,-0.52086 1.856966,-0.52086 0.317044,0 0.622764,0.0453 0.30572,0.0453 0.566148,0.12456 0.271751,0.0679 0.486888,0.15852 0.226459,0.0906 0.373658,0.19249 l -0.271752,0.64541 q -0.328366,-0.22646 -0.80393,-0.36234 -0.464242,-0.13587 -1.007744,-0.13587 -0.373658,0 -0.690701,0.0793 -0.305721,0.0679 -0.53218,0.23778 -0.226459,0.15852 -0.362335,0.40763 -0.124553,0.2491 -0.124553,0.60011 0,0.36234 0.135876,0.61144 0.135876,0.24911 0.373658,0.43028 0.249105,0.18116 0.577471,0.32836 0.328366,0.1472 0.713347,0.30572 0.464242,0.19249 0.871869,0.38498 0.41895,0.19249 0.72467,0.45292 0.30572,0.26043 0.486887,0.63409 0.181168,0.37366 0.181168,0.91716 0,1.06436 -0.747316,1.59654 -0.735993,0.53218 -2.004165,0.53218 -0.452919,0 -0.826577,-0.0566 -0.373658,-0.0566 -0.668055,-0.13587 -0.294397,-0.0906 -0.498211,-0.18117 -0.203813,-0.0906 -0.317043,-0.15852 l 0.249106,-0.66806 q 0.113229,0.0679 0.30572,0.15852 0.19249,0.0906 0.452918,0.18117 0.260429,0.0793 0.588795,0.13588 0.328366,0.0566 0.72467,0.0566 z" />
      <path
         id="path851"
         style="font-style:normal;font-variant:normal;font-weight:300;font-stretch:normal;font-size:11.32296753px;font-family:'Ubuntu Light';-inkscape-font-specification:'Ubuntu Light, Light';font-variant-ligatures:normal;font-variant-caps:normal;font-variant-numeric:normal;font-feature-settings:normal;text-align:start;writing-mode:lr-tb;text-anchor:start;fill:#f9f9f9;stroke-width:0.28307387"
         d="m 66.806679,294.33502 v -8.65075 l 0.735993,-0.13587 v 3.10249 q 0.362335,-0.13587 0.735993,-0.20381 0.373658,-0.0793 0.747316,-0.0793 0.679378,0 1.132296,0.19249 0.452919,0.19249 0.72467,0.55482 0.271752,0.35102 0.373658,0.84923 0.11323,0.49821 0.11323,1.09832 v 3.27234 h -0.735993 v -3.03455 q 0,-0.62277 -0.09058,-1.05304 -0.07926,-0.43027 -0.283074,-0.70202 -0.19249,-0.27175 -0.520856,-0.38498 -0.328366,-0.12456 -0.826577,-0.12456 -0.19249,0 -0.41895,0.034 -0.215136,0.034 -0.407627,0.0793 -0.19249,0.034 -0.351012,0.0793 -0.147198,0.0453 -0.19249,0.0679 v 5.03872 z" />
      <path
         id="path853"
         style="font-style:normal;font-variant:normal;font-weight:300;font-stretch:normal;font-size:11.32296753px;font-family:'Ubuntu Light';-inkscape-font-specification:'Ubuntu Light, Light';font-variant-ligatures:normal;font-variant-caps:normal;font-variant-numeric:normal;font-feature-settings:normal;text-align:start;writing-mode:lr-tb;text-anchor:start;fill:#f9f9f9;stroke-width:0.28307387"
         d="m 72.891183,291.40237 q 0,-0.76996 0.215137,-1.33611 0.226459,-0.57747 0.577471,-0.96245 0.362335,-0.38498 0.815254,-0.56615 0.464241,-0.19249 0.951129,-0.19249 1.075682,0 1.709768,0.70203 0.645409,0.70202 0.645409,2.16268 0,0.0906 -0.01132,0.18117 0,0.0906 -0.01132,0.16984 h -4.110237 q 0.03397,1.07569 0.53218,1.65316 0.49821,0.57747 1.585215,0.57747 0.600117,0 0.951129,-0.11323 0.351012,-0.11323 0.509534,-0.19249 l 0.135876,0.63409 q -0.158522,0.0906 -0.600118,0.21513 -0.430273,0.12455 -1.019067,0.12455 -0.769962,0 -1.313464,-0.22645 -0.543502,-0.22646 -0.894514,-0.63409 -0.351012,-0.40763 -0.509534,-0.96245 -0.158522,-0.56615 -0.158522,-1.23421 z m 4.15553,-0.46424 q -0.02265,-0.91716 -0.430273,-1.42669 -0.407627,-0.50954 -1.154943,-0.50954 -0.396304,0 -0.713347,0.15853 -0.30572,0.15852 -0.543502,0.43027 -0.22646,0.26043 -0.362335,0.61144 -0.124553,0.35101 -0.147199,0.73599 z" />
      <path
         id="path855"
         style="font-style:normal;font-variant:normal;font-weight:300;font-stretch:normal;font-size:11.32296753px;font-family:'Ubuntu Light';-inkscape-font-specification:'Ubuntu Light, Light';font-variant-ligatures:normal;font-variant-caps:normal;font-variant-numeric:normal;font-feature-settings:normal;text-align:start;writing-mode:lr-tb;text-anchor:start;fill:#f9f9f9;stroke-width:0.28307387"
         d="m 80.939867,294.43693 q -0.373658,-0.0113 -0.656732,-0.10191 -0.271751,-0.0793 -0.464242,-0.2491 -0.181167,-0.18117 -0.283074,-0.45292 -0.09058,-0.28308 -0.09058,-0.70203 v -7.2467 l 0.735992,-0.13587 v 7.35993 q 0,0.27175 0.04529,0.44159 0.05662,0.15853 0.158522,0.26043 0.101907,0.0906 0.260428,0.13588 0.169845,0.0453 0.396304,0.0793 z" />
      <path
         id="path857"
         style="font-style:normal;font-variant:normal;font-weight:300;font-stretch:normal;font-size:11.32296753px;font-family:'Ubuntu Light';-inkscape-font-specification:'Ubuntu Light, Light';font-variant-ligatures:normal;font-variant-caps:normal;font-variant-numeric:normal;font-feature-settings:normal;text-align:start;writing-mode:lr-tb;text-anchor:start;fill:#f9f9f9;stroke-width:0.28307387"
         d="m 84.505009,285.5484 q 0.475565,0 0.769962,0.0793 0.30572,0.0679 0.396304,0.12455 l -0.147198,0.63409 q -0.124553,-0.0566 -0.373658,-0.11323 -0.237783,-0.0679 -0.611441,-0.0679 -0.781284,0 -1.120973,0.39631 -0.328366,0.3963 -0.328366,1.26817 v 0.61144 h 2.355177 v 0.62276 h -2.355177 v 5.23121 h -0.735993 v -6.48806 q 0,-1.14362 0.520856,-1.72109 0.53218,-0.57747 1.630507,-0.57747 z" />
    </g>
  </g>
</svg>
